<?xml version="1.0" standalone="no"?>
<!DOCTYPE svg PUBLIC "-//W3C//DTD SVG 20010904//EN"
 "http://www.w3.org/TR/2001/REC-SVG-20010904/DTD/svg10.dtd">
<svg version="1.0" xmlns="http://www.w3.org/2000/svg"
 width="932.000000pt" height="117.000000pt" viewBox="0 0 932.000000 117.000000"
 preserveAspectRatio="xMidYMid meet">
<metadata>
Created by potrace 1.13, written by Peter Selinger 2001-2015
</metadata>
<g transform="translate(0.000000,117.000000) scale(0.100000,-0.100000)"
fill="#000000" stroke="none">
<path d="M81 1081 c-45 -49 -81 -97 -81 -108 0 -35 32 -53 91 -53 l54 0 -3
-366 c-2 -332 -1 -369 14 -385 14 -16 32 -19 104 -19 117 0 120 3 120 145 0
85 3 106 12 97 8 -8 51 -12 129 -12 l117 0 41 46 c77 88 124 224 137 398 l7
96 36 0 36 0 -3 -366 c-2 -332 -1 -369 14 -385 14 -16 32 -19 104 -19 117 0
120 4 120 140 l0 104 61 -99 c94 -154 79 -145 234 -145 87 0 135 4 143 12 14
14 9 19 57 -62 50 -85 64 -100 90 -100 36 0 51 28 99 192 l46 156 0 286 0 286
67 0 c52 0 64 -3 55 -12 -9 -9 -12 -105 -12 -368 0 -422 -10 -390 122 -390
122 0 117 -10 120 240 l3 204 59 -194 c35 -118 66 -204 79 -217 25 -27 58 -30
79 -5 8 9 43 113 79 230 l64 213 3 -217 c3 -266 -3 -254 122 -254 71 0 90 3
103 18 15 17 17 58 17 385 l0 367 53 0 52 0 -3 -366 c-2 -332 -1 -369 14 -385
15 -17 35 -19 199 -19 l181 0 100 83 c104 87 120 113 88 148 -16 17 -32 19
-181 19 l-163 0 0 65 c0 64 0 65 27 65 21 0 48 20 115 87 92 91 103 116 70
146 -15 13 -39 17 -114 17 l-96 0 -4 70 -3 70 105 0 105 1 100 82 c105 87 121
113 89 148 -16 18 -34 19 -315 19 l-297 0 -61 -67 -61 -68 0 51 c0 74 -15 84
-127 84 -73 0 -93 -3 -105 -17 -31 -35 -108 -168 -108 -186 0 -10 -11 -28 -24
-40 -14 -13 -30 -47 -40 -87 -10 -36 -20 -72 -23 -80 -3 -8 -28 71 -57 177
-30 114 -59 199 -70 212 -17 19 -30 21 -147 21 l-127 0 -66 -72 -66 -73 0 56
c0 82 -12 89 -142 89 -89 0 -107 -3 -121 -18 -15 -17 -17 -64 -17 -466 l0
-448 -75 92 -74 91 34 54 c97 150 133 438 73 578 -12 27 -39 63 -61 82 l-41
35 -262 0 -262 0 -60 -66 -59 -65 -13 31 c-7 17 -31 46 -53 65 l-41 35 -262 0
-262 0 -81 -89z m609 19 c15 -11 38 -43 50 -72 20 -45 23 -69 23 -163 -2 -158
-41 -295 -112 -392 l-31 -43 -101 0 -100 0 39 48 c144 174 169 392 53 469 -33
22 -42 23 -248 23 l-214 0 67 75 67 75 240 0 c222 0 241 -1 267 -20z m750 0
c15 -11 38 -43 50 -72 20 -45 23 -69 23 -163 -2 -165 -52 -329 -126 -408 l-28
-30 82 -101 c45 -55 87 -107 92 -113 7 -10 -15 -13 -106 -13 l-115 0 -72 116
-71 116 24 27 c153 166 187 409 68 488 -33 22 -42 23 -248 23 l-214 0 67 75
67 75 240 0 c222 0 241 -1 267 -20z m370 -356 l0 -375 -47 -160 -46 -159 -44
72 -43 73 0 463 0 462 90 0 90 0 0 -376z m499 89 c42 -155 78 -284 81 -287 3
-3 25 73 49 169 48 192 40 182 108 124 l31 -26 -93 -303 c-51 -166 -95 -299
-97 -294 -3 5 -45 140 -93 299 -99 326 -119 377 -164 420 -31 29 -36 30 -142
33 l-109 4 67 74 67 75 110 -3 109 -3 76 -282z m461 -173 l0 -460 -70 0 -70 0
0 344 0 344 -49 40 -50 39 47 76 47 77 73 0 72 0 0 -460z m740 447 c-8 -8 -50
-41 -92 -75 l-76 -62 -257 0 -256 0 67 75 67 75 281 0 c235 0 278 -2 266 -13z
m-3030 -202 c79 -41 63 -211 -33 -357 -68 -102 -66 -107 -69 146 l-3 226 38 0
c21 0 51 -7 67 -15z m750 0 c56 -29 67 -129 26 -238 -23 -62 -93 -178 -116
-192 -6 -4 -10 78 -12 220 l-3 225 38 0 c21 0 51 -7 67 -15z m-900 -360 l0
-345 -70 0 -70 0 0 345 0 345 70 0 70 0 0 -345z m750 0 l0 -345 -70 0 -70 0 0
345 0 345 70 0 70 0 0 -345z m2030 265 l0 -80 117 0 117 0 -74 -75 c-70 -70
-77 -75 -117 -75 l-43 0 0 -115 0 -115 182 -2 181 -3 -89 -72 -89 -73 -162 0
-163 0 0 345 0 345 70 0 70 0 0 -80z m-950 -270 l0 -340 -70 0 -70 0 0 340 0
340 70 0 70 0 0 -340z"/>
<path d="M3611 1081 c-79 -86 -93 -115 -69 -139 8 -8 8 -15 -2 -27 -9 -11 -11
-59 -7 -202 7 -264 40 -383 133 -484 61 -64 90 -79 154 -79 69 0 120 28 203
108 71 71 81 96 47 127 -21 19 -33 18 -113 -10 -81 -30 -117 -3 -158 116 -18
53 -23 95 -28 247 l-6 182 83 0 c83 0 84 0 131 -40 26 -22 56 -40 68 -40 23 0
47 25 57 58 6 19 14 22 54 22 l47 0 -3 -366 c-2 -332 -1 -369 14 -385 14 -16
32 -19 104 -19 117 0 120 4 120 140 l0 104 61 -99 c94 -154 79 -145 234 -145
81 0 135 4 142 11 8 8 13 8 17 0 4 -7 41 -11 90 -11 101 0 109 7 131 110 8 41
17 85 20 98 5 21 10 22 104 22 l98 0 22 -99 c13 -59 29 -105 40 -115 22 -20
180 -23 199 -4 9 9 15 9 24 0 7 -7 45 -12 98 -12 123 0 120 -5 120 208 l0 172
28 0 c21 0 47 20 115 88 90 91 102 115 69 145 -15 13 -39 17 -114 17 l-96 0
-4 70 -3 70 106 0 106 0 24 -37 c23 -36 27 -38 86 -41 61 -3 62 -3 94 38 23
28 40 40 58 40 l26 0 -3 -372 -2 -371 41 -71 c53 -90 67 -106 94 -106 36 0 51
28 99 193 l47 157 -3 285 -3 285 76 0 c44 0 80 5 87 12 18 18 27 0 10 -19 -15
-18 -148 -651 -148 -704 0 -45 27 -59 117 -59 98 0 107 7 128 110 8 41 17 85
20 98 5 21 10 22 104 22 l98 0 22 -99 c13 -59 29 -105 40 -115 13 -12 38 -16
103 -16 108 0 124 13 114 90 l-7 50 48 -52 c26 -28 66 -59 88 -69 51 -23 145
-25 191 -3 50 24 120 107 143 170 26 68 51 208 51 284 0 80 -13 90 -122 90
-110 0 -113 -3 -122 -138 -3 -57 -13 -119 -21 -139 -14 -33 -16 -35 -37 -21
-43 29 -60 106 -67 316 l-6 192 83 0 c83 0 84 0 131 -40 26 -22 56 -40 68 -40
23 0 47 25 57 58 l7 22 60 -32 59 -33 0 -175 c0 -192 13 -277 53 -356 34 -68
123 -149 178 -164 64 -17 188 -8 231 17 l34 20 17 -24 18 -23 338 0 339 0 37
41 c37 41 37 42 33 118 -3 59 -10 90 -34 141 -47 98 -146 231 -268 357 l-108
113 112 0 113 0 43 -35 c47 -38 83 -44 106 -17 22 24 98 216 98 245 0 13 -8
31 -18 40 -16 15 -53 17 -305 17 l-286 0 -36 -31 c-23 -20 -35 -26 -35 -17 0
8 -8 22 -18 31 -28 25 -222 25 -244 0 -13 -15 -17 -71 -21 -358 -3 -187 -9
-350 -12 -362 -16 -50 -76 -36 -103 25 -15 32 -17 84 -20 357 -3 275 -6 322
-19 337 -13 15 -33 18 -107 18 -88 0 -91 -1 -123 -32 -23 -22 -33 -27 -33 -17
0 9 -8 23 -18 32 -16 15 -49 17 -249 17 l-231 0 -81 -89 c-79 -87 -93 -115
-69 -139 9 -9 9 -15 0 -24 -7 -7 -12 -46 -13 -97 l-1 -86 -42 201 c-22 111
-47 209 -55 218 -11 13 -32 16 -105 16 l-91 0 -80 -65 c-43 -35 -80 -63 -81
-62 -2 1 3 21 9 44 9 37 9 45 -8 63 -18 20 -27 20 -609 20 l-591 1 -81 -88
-81 -87 -13 70 c-18 99 -24 104 -135 104 l-92 0 -99 -83 c-95 -79 -99 -84 -99
-122 0 -22 -5 -47 -10 -55 -6 -8 -39 -158 -75 -334 l-66 -318 -67 81 -66 82
34 54 c97 150 133 438 73 578 -12 27 -39 63 -61 82 l-41 35 -260 0 c-227 0
-262 -2 -278 -17 -17 -15 -19 -15 -36 0 -16 15 -49 17 -249 17 l-231 0 -81
-89z m485 -63 c-24 -57 -45 -109 -47 -115 -2 -8 -21 2 -49 27 l-45 39 -188 1
-188 0 67 75 67 75 213 0 213 0 -43 -102z m654 82 c15 -11 38 -43 50 -72 20
-45 23 -69 23 -163 -2 -165 -52 -329 -126 -408 l-28 -30 82 -101 c45 -55 87
-107 92 -113 7 -10 -15 -13 -106 -13 l-115 0 -72 116 -71 116 24 27 c153 166
187 409 68 488 -33 22 -42 23 -248 23 l-214 0 67 75 67 75 240 0 c222 0 241
-1 267 -20z m724 -423 c49 -243 92 -450 94 -460 4 -15 -4 -17 -67 -17 -39 0
-71 2 -71 5 0 21 -96 410 -121 490 -56 180 -106 247 -194 260 -25 4 -45 11
-45 15 0 4 39 40 87 79 l87 71 71 0 70 0 89 -443z m716 430 c-8 -8 -50 -41
-92 -75 l-76 -62 -257 0 -256 0 67 75 67 75 281 0 c235 0 278 -2 266 -13z
m573 -62 l-25 -75 -238 0 -238 0 -35 -40 c-28 -33 -40 -40 -69 -40 -31 0 -37
4 -53 39 l-18 40 69 75 69 76 282 0 282 0 -26 -75z m471 -368 c49 -243 92
-450 94 -460 4 -15 -4 -17 -67 -17 -39 0 -71 2 -71 5 0 21 -96 410 -121 490
-56 180 -106 247 -194 260 -25 4 -45 11 -45 15 0 4 39 40 87 79 l87 71 71 0
70 0 89 -443z m612 341 c-24 -57 -45 -109 -47 -115 -2 -8 -21 2 -49 27 l-45
39 -188 1 -188 0 67 75 67 75 213 0 213 0 -43 -102z m324 -193 c0 -181 4 -314
11 -347 23 -107 119 -161 185 -105 25 22 28 32 35 123 4 54 8 217 9 362 l0
262 91 0 91 0 -4 -302 c-5 -339 -15 -405 -71 -499 -77 -129 -260 -160 -368
-62 -91 82 -119 188 -119 450 l0 181 -67 37 c-38 20 -70 39 -72 41 -2 1 28 37
65 78 l69 76 73 0 72 0 0 -295z m1100 289 c0 -6 -81 -207 -86 -213 -2 -2 -23
13 -47 33 l-44 36 -212 0 -211 0 0 30 c0 40 24 95 47 109 19 11 553 16 553 5z
m-3669 -482 l-3 -287 -59 280 c-32 154 -58 285 -59 290 0 6 25 9 62 7 l63 -3
-4 -287z m-1061 273 c56 -29 67 -129 26 -238 -23 -62 -93 -178 -116 -192 -6
-4 -10 78 -12 220 l-3 225 38 0 c21 0 51 -7 67 -15z m-818 -192 c5 -194 22
-271 74 -341 50 -65 132 -79 216 -36 31 15 30 13 -17 -36 -91 -94 -179 -122
-246 -77 -110 74 -168 257 -169 530 l0 137 69 0 69 0 4 -177z m668 -168 l0
-345 -70 0 -70 0 0 345 0 345 70 0 70 0 0 -345z m795 323 c-10 -44 -55 -271
-55 -279 0 -5 36 -9 79 -9 l79 0 25 -75 26 -75 -123 0 -123 0 -12 -68 c-7 -37
-17 -88 -23 -114 l-10 -48 -64 0 c-35 0 -64 4 -64 9 0 12 129 652 135 669 3 8
26 12 70 12 63 0 65 -1 60 -22z m605 -58 l0 -80 117 0 117 0 -74 -75 c-70 -70
-77 -75 -117 -75 l-43 0 0 -190 0 -190 -70 0 -70 0 0 345 0 345 70 0 70 0 0
-80z m770 -181 l0 -260 -47 -160 -46 -159 -44 72 -43 73 0 348 0 347 90 0 90
0 0 -261z m385 239 c-10 -44 -55 -271 -55 -279 0 -5 36 -9 79 -9 l79 0 25 -75
26 -75 -123 0 -123 0 -12 -68 c-7 -37 -17 -88 -23 -114 l-10 -48 -64 0 c-35 0
-64 4 -64 9 0 12 129 652 135 669 3 8 26 12 70 12 63 0 65 -1 60 -22z m528
-165 c6 -235 28 -315 97 -343 79 -33 116 26 127 194 l6 106 70 0 70 0 -7 -79
c-19 -228 -95 -366 -211 -379 -181 -20 -295 191 -295 546 l0 142 69 0 69 0 5
-187z m1438 79 c238 -249 350 -472 278 -555 l-24 -28 -318 3 -317 3 81 115
c45 63 83 117 85 119 1 2 9 -13 18 -32 8 -20 23 -40 34 -46 31 -16 244 -14
267 2 43 32 -15 137 -182 334 -54 63 -113 132 -131 154 l-34 39 70 0 70 0 103
-108z m-98 -141 c86 -103 157 -207 157 -230 0 -8 -29 -11 -97 -9 -90 3 -98 5
-109 25 -34 70 -78 81 -119 31 l-27 -33 6 30 c3 17 9 110 12 207 l7 177 41
-46 c23 -25 81 -94 129 -152z"/>
</g>
</svg>
